<svg width="127" height="45" viewBox="0 0 127 45" fill="none" xmlns="http://www.w3.org/2000/svg">
<rect x="0.5" y="0.302734" width="126" height="44" rx="10" fill="white"/>
<path d="M33.7426 21.8656C33.7679 24.5896 36.1322 25.496 36.1584 25.5076C36.1384 25.5715 35.7806 26.7994 34.9128 28.0677C34.1625 29.1642 33.3839 30.2567 32.1573 30.2793C30.9521 30.3015 30.5645 29.5646 29.1866 29.5646C27.809 29.5646 27.3785 30.2567 26.2375 30.3015C25.0536 30.3464 24.152 29.1158 23.3955 28.0233C21.8498 25.7886 20.6685 21.7084 22.2547 18.9543C23.0426 17.5866 24.4508 16.7205 25.9792 16.6983C27.1418 16.6761 28.2392 17.4804 28.9499 17.4804C29.6603 17.4804 30.9938 16.5131 32.3957 16.6552C32.9826 16.6796 34.63 16.8923 35.6879 18.4407C35.6026 18.4935 33.7222 19.5882 33.7426 21.8656V21.8656ZM31.4775 15.1767C32.106 14.4158 32.5291 13.3566 32.4137 12.3027C31.5076 12.3391 30.412 12.9065 29.7621 13.667C29.1797 14.3404 28.6696 15.4182 28.8073 16.4513C29.8172 16.5294 30.8489 15.9381 31.4775 15.1767Z" fill="black"/>
<path d="M50.668 25.7147L54.14 16.1247H55.596L59.04 25.7147H57.528L56.604 23.1107H52.936L52.026 25.7147H50.668ZM54.728 17.9447L53.328 21.9627H56.184L54.77 17.9447H54.728ZM60.1193 27.8147V18.5747H61.4493V19.1487H61.5053C61.9393 18.7427 62.6813 18.4347 63.5493 18.4347C65.1033 18.4347 66.4613 19.2887 66.4613 21.9207V22.1167C66.4613 24.7627 65.2013 25.7567 63.2413 25.7567C62.4433 25.7567 61.8693 25.5467 61.4913 25.3367V27.8147H60.1193ZM63.0733 24.6787C64.3053 24.6787 65.0193 24.1187 65.0193 22.2987V22.0047C65.0193 20.1427 64.3473 19.5967 63.1433 19.5967C62.3873 19.5967 61.7853 19.8347 61.4913 20.0587V24.2307C61.7853 24.4547 62.3873 24.6787 63.0733 24.6787ZM67.8986 27.8147V18.5747H69.2286V19.1487H69.2846C69.7186 18.7427 70.4606 18.4347 71.3286 18.4347C72.8826 18.4347 74.2406 19.2887 74.2406 21.9207V22.1167C74.2406 24.7627 72.9806 25.7567 71.0206 25.7567C70.2226 25.7567 69.6486 25.5467 69.2706 25.3367V27.8147H67.8986ZM70.8526 24.6787C72.0846 24.6787 72.7986 24.1187 72.7986 22.2987V22.0047C72.7986 20.1427 72.1266 19.5967 70.9226 19.5967C70.1666 19.5967 69.5646 19.8347 69.2706 20.0587V24.2307C69.5646 24.4547 70.1666 24.6787 70.8526 24.6787ZM81.7076 25.8827C80.4896 25.8827 79.5656 25.6167 78.9076 25.2527V24.0767C79.6496 24.4267 80.5876 24.6787 81.6096 24.6787C82.9676 24.6787 83.5416 24.0767 83.5416 23.1247C83.5416 22.2847 83.1636 21.9207 82.0716 21.5707L81.1336 21.2627C79.8176 20.8567 79.0056 20.1567 79.0056 18.6027C79.0056 17.0487 80.0416 15.9567 82.0996 15.9567C83.3176 15.9567 83.9896 16.2227 84.5216 16.4887V17.6647C83.9336 17.4127 83.1496 17.1607 82.0996 17.1607C81.0356 17.1607 80.4336 17.6227 80.4336 18.4767C80.4336 19.3027 80.7276 19.6667 81.7216 19.9747L82.6736 20.2687C84.1156 20.7307 85.0256 21.3607 85.0256 23.0127C85.0256 24.7627 83.9896 25.8827 81.7076 25.8827ZM88.8584 25.7847C87.6684 25.7847 86.8844 25.2947 86.8844 23.9927V19.6807H85.8764V18.5747H86.8844V16.8947H88.2704V18.5747H89.9924V19.6807H88.2704V23.7967C88.2704 24.4407 88.4804 24.6787 89.2504 24.6787C89.5444 24.6787 89.8524 24.6367 90.1324 24.5947V25.5187C89.8384 25.6447 89.5164 25.7847 88.8584 25.7847ZM94.3806 25.8407C92.2666 25.8407 91.0626 24.5247 91.0626 22.2987V22.0607C91.0626 19.7927 92.4066 18.4347 94.3946 18.4347C96.4666 18.4347 97.6846 19.7647 97.6846 22.0187V22.2287C97.6846 24.4967 96.3266 25.8407 94.3806 25.8407ZM94.3946 24.7627C95.5566 24.7627 96.2426 23.9367 96.2426 22.3687V21.9907C96.2426 20.1007 95.4026 19.5407 94.3666 19.5407C93.1626 19.5407 92.4766 20.3667 92.4766 21.9347V22.3127C92.4766 24.2027 93.3306 24.7627 94.3946 24.7627ZM99.0978 25.7147V18.5747H100.428V19.3727H100.484C100.904 18.8967 101.632 18.4907 102.402 18.4907C102.57 18.4907 102.78 18.5047 102.85 18.5467V19.7787C102.668 19.7507 102.43 19.7367 102.29 19.7367C101.618 19.7367 100.96 19.9327 100.47 20.2547V25.7147H99.0978ZM107.071 25.8407C104.761 25.8407 103.613 24.4687 103.613 22.2287V22.0467C103.613 19.5967 105.083 18.4347 106.805 18.4347C108.821 18.4347 109.759 19.5967 109.759 21.8507V22.5227H105.027C105.125 24.1607 105.923 24.7067 107.323 24.7067C108.261 24.7067 108.877 24.4827 109.535 24.1887V25.1547C109.087 25.4767 108.261 25.8407 107.071 25.8407ZM106.749 19.5267C105.993 19.5267 105.139 19.9187 105.027 21.5147H108.317C108.317 20.0727 107.785 19.5267 106.749 19.5267Z" fill="#1B1E28"/>
</svg>
