<svg width="138" height="45" viewBox="0 0 138 45" fill="none" xmlns="http://www.w3.org/2000/svg">
<rect x="0.5" y="0.302734" width="137" height="44" rx="10" fill="white"/>
<path d="M21.518 13.8501C21.3139 14.0587 21.1958 14.3834 21.1958 14.8039V29.8036C21.1958 30.2242 21.3139 30.5489 21.518 30.7574L21.5683 30.8032L30.1773 22.4013V22.2029L21.5683 13.8009L21.518 13.8501Z" fill="url(#paint0_linear_1739_13116)"/>
<path d="M33.0437 25.2036L30.1772 22.4015V22.2032L33.0472 19.4011L33.1115 19.4375L36.5103 21.3257C37.4802 21.8615 37.4802 22.7432 36.5103 23.2824L33.1115 25.1672L33.0437 25.2036V25.2036Z" fill="url(#paint1_linear_1739_13116)"/>
<path d="M33.1112 25.167L30.177 22.3022L21.5176 30.7576C21.8397 31.0882 22.3651 31.1281 22.9625 30.7974L33.1112 25.167" fill="url(#paint2_linear_1739_13116)"/>
<path d="M33.1112 19.4374L22.9625 13.807C22.3651 13.4798 21.8397 13.5196 21.5176 13.8503L30.177 22.3022L33.1112 19.4374Z" fill="url(#paint3_linear_1739_13116)"/>
<path d="M55.61 25.8687C52.866 25.8687 51.088 24.4547 51.088 21.1227V20.8427C51.088 17.1747 53.286 15.9567 55.708 15.9567C56.926 15.9567 57.71 16.2367 58.284 16.5307V17.7347C57.696 17.4827 56.968 17.1607 55.68 17.1607C53.37 17.1607 52.628 18.8267 52.628 20.6607V21.1087C52.628 23.1807 53.23 24.6787 55.624 24.6787C56.226 24.6787 56.856 24.5947 57.234 24.4407V22.0887H55.33V20.9407H58.676V25.2947C57.934 25.6027 56.87 25.8687 55.61 25.8687ZM63.3044 25.8407C61.1904 25.8407 59.9864 24.5247 59.9864 22.2987V22.0607C59.9864 19.7927 61.3304 18.4347 63.3184 18.4347C65.3904 18.4347 66.6084 19.7647 66.6084 22.0187V22.2287C66.6084 24.4967 65.2504 25.8407 63.3044 25.8407ZM63.3184 24.7627C64.4804 24.7627 65.1664 23.9367 65.1664 22.3687V21.9907C65.1664 20.1007 64.3264 19.5407 63.2904 19.5407C62.0864 19.5407 61.4004 20.3667 61.4004 21.9347V22.3127C61.4004 24.2027 62.2544 24.7627 63.3184 24.7627ZM70.9197 25.8407C68.8057 25.8407 67.6017 24.5247 67.6017 22.2987V22.0607C67.6017 19.7927 68.9457 18.4347 70.9337 18.4347C73.0057 18.4347 74.2237 19.7647 74.2237 22.0187V22.2287C74.2237 24.4967 72.8657 25.8407 70.9197 25.8407ZM70.9337 24.7627C72.0957 24.7627 72.7817 23.9367 72.7817 22.3687V21.9907C72.7817 20.1007 71.9417 19.5407 70.9057 19.5407C69.7017 19.5407 69.0157 20.3667 69.0157 21.9347V22.3127C69.0157 24.2027 69.8697 24.7627 70.9337 24.7627ZM78.1989 27.7867C76.0009 27.7867 74.9369 27.3107 74.9369 26.2467C74.9369 25.5047 75.5389 25.0287 76.2669 24.7767V24.7067C75.8609 24.5667 75.5389 24.3987 75.5389 23.9227C75.5389 23.4187 75.8049 22.9987 76.3649 22.6067C75.8329 22.2427 75.4689 21.6827 75.4689 20.8847V20.7447C75.4689 19.2607 76.6169 18.4347 78.2409 18.4347C78.6329 18.4347 78.9829 18.4767 79.3189 18.5467H81.7409V19.5407H80.5929C80.8449 19.8207 80.9709 20.2127 80.9709 20.6887V20.8287C80.9709 22.3267 79.7809 23.0407 78.2269 23.0407C77.8209 23.0407 77.4289 22.9987 77.0649 22.8867C76.9109 23.0407 76.7989 23.2227 76.7989 23.4047C76.7989 23.7687 76.9949 23.7967 77.4569 23.7967H79.4169C80.7469 23.7967 81.6989 24.2727 81.6989 25.6587C81.6989 26.9747 80.6769 27.7867 78.1989 27.7867ZM78.1709 26.7647C79.7249 26.7647 80.2709 26.5547 80.2709 25.8687C80.2709 25.2807 79.9349 25.0427 79.0949 25.0427H77.1769C76.7009 25.1967 76.3509 25.5187 76.3509 26.0507C76.3509 26.6107 76.8689 26.7647 78.1709 26.7647ZM78.2269 22.0887C79.1229 22.0887 79.6269 21.6967 79.6269 20.8847V20.6887C79.6269 19.7927 79.0809 19.4147 78.2269 19.4147C77.3589 19.4147 76.8269 19.8487 76.8269 20.6607V20.8567C76.8269 21.6967 77.3869 22.0887 78.2269 22.0887ZM82.884 25.7147V15.4947H84.256V25.7147H82.884ZM89.2022 25.8407C86.8922 25.8407 85.7442 24.4687 85.7442 22.2287V22.0467C85.7442 19.5967 87.2142 18.4347 88.9362 18.4347C90.9522 18.4347 91.8902 19.5967 91.8902 21.8507V22.5227H87.1582C87.2562 24.1607 88.0542 24.7067 89.4542 24.7067C90.3922 24.7067 91.0082 24.4827 91.6662 24.1887V25.1547C91.2182 25.4767 90.3922 25.8407 89.2022 25.8407ZM88.8802 19.5267C88.1242 19.5267 87.2702 19.9187 87.1582 21.5147H90.4482C90.4482 20.0727 89.9162 19.5267 88.8802 19.5267ZM97.161 25.7147V16.1247H100.325C102.523 16.1247 103.601 17.1607 103.601 19.0087C103.601 20.9827 102.341 22.0187 100.451 22.0187H98.603V25.7147H97.161ZM98.603 20.8847H100.171C101.557 20.8847 102.075 20.2967 102.075 19.1207C102.075 17.8187 101.571 17.3007 100.199 17.3007H98.603V20.8847ZM105.005 25.7147V15.4947H106.377V25.7147H105.005ZM110.063 25.8407C108.775 25.8407 107.851 25.1967 107.851 23.8107C107.851 22.5367 108.691 21.9067 110.077 21.7247L111.869 21.5147V20.8987C111.869 19.8347 111.421 19.5967 110.161 19.5967C109.461 19.5967 108.873 19.7087 108.439 19.8067V18.8407C109.097 18.5747 109.825 18.4347 110.707 18.4347C112.317 18.4347 113.255 19.1067 113.255 20.5487V25.7147H112.121L111.995 25.1127H111.911C111.575 25.5327 110.987 25.8407 110.063 25.8407ZM110.427 24.8327C111.015 24.8327 111.589 24.6367 111.869 24.3707V22.4667L110.385 22.6207C109.629 22.7047 109.251 23.0127 109.251 23.7547C109.251 24.4827 109.713 24.8327 110.427 24.8327ZM115.627 27.8007C115.291 27.8007 114.871 27.7027 114.675 27.6047V26.6387C114.843 26.6947 115.109 26.7227 115.347 26.7227C116.019 26.7227 116.523 26.6667 116.733 26.1207L117.041 25.3227L114.311 18.5747H115.781L117.727 23.5727H117.755L119.547 18.5747H120.891L118.021 26.3167C117.531 27.6607 116.887 27.8007 115.627 27.8007Z" fill="#1B1E28"/>
<defs>
<linearGradient id="paint0_linear_1739_13116" x1="29.413" y1="29.9598" x2="18.0334" y2="18.3045" gradientUnits="userSpaceOnUse">
<stop stop-color="#00A0FF"/>
<stop offset="0.0066" stop-color="#00A1FF"/>
<stop offset="0.2601" stop-color="#00BEFF"/>
<stop offset="0.5122" stop-color="#00D2FF"/>
<stop offset="0.7604" stop-color="#00DFFF"/>
<stop offset="1" stop-color="#00E3FF"/>
</linearGradient>
<linearGradient id="paint1_linear_1739_13116" x1="37.7733" y1="22.3014" x2="20.9638" y2="22.3014" gradientUnits="userSpaceOnUse">
<stop stop-color="#FFE000"/>
<stop offset="0.4087" stop-color="#FFBD00"/>
<stop offset="0.7754" stop-color="#FFA500"/>
<stop offset="1" stop-color="#FF9C00"/>
</linearGradient>
<linearGradient id="paint2_linear_1739_13116" x1="31.5156" y1="20.7448" x2="16.084" y2="4.93927" gradientUnits="userSpaceOnUse">
<stop stop-color="#FF3A44"/>
<stop offset="1" stop-color="#C31162"/>
</linearGradient>
<linearGradient id="paint3_linear_1739_13116" x1="19.3378" y1="35.748" x2="26.2287" y2="28.6901" gradientUnits="userSpaceOnUse">
<stop stop-color="#32A071"/>
<stop offset="0.0685" stop-color="#2DA771"/>
<stop offset="0.4762" stop-color="#15CF74"/>
<stop offset="0.8009" stop-color="#06E775"/>
<stop offset="1" stop-color="#00F076"/>
</linearGradient>
</defs>
</svg>
