<svg width="34" height="34" viewBox="0 0 34 34" fill="none" xmlns="http://www.w3.org/2000/svg">
<g filter="url(#filter0_d_1739_13026)">
<rect x="1" width="32" height="32" rx="6.4" fill="white"/>
<path d="M1 6.4C1 2.86538 3.86538 0 7.4 0H26.6C30.1346 0 33 2.86538 33 6.4V9.856H1V6.4Z" fill="#6A926F"/>
<rect x="7.39941" y="3.00781" width="3.84" height="3.84" rx="1.92" fill="white"/>
<rect x="22.7593" y="3.00781" width="3.84" height="3.84" rx="1.92" fill="white"/>
<rect x="11.8145" y="14.8003" width="3.2" height="3.2" rx="1.6" transform="rotate(20 11.8145 14.8003)" fill="#6A926F"/>
<rect x="16.0283" y="13.2349" width="3.2" height="3.2" rx="1.6" transform="rotate(20 16.0283 13.2349)" fill="#6A926F"/>
<rect x="20.29" y="15.0928" width="3.2" height="3.2" rx="1.6" transform="rotate(20 20.29 15.0928)" fill="#6A926F"/>
<rect x="21.7822" y="19.041" width="3.2" height="3.2" rx="1.6" transform="rotate(20 21.7822 19.041)" fill="#6A926F"/>
<path d="M16.9281 26.954C14.6576 26.6403 11.6326 25.0475 11.3847 22.4901C11.2527 21.1217 12.7966 20.0589 13.8726 19.4897C15.0262 18.8754 16.114 18.569 17.4492 18.7519C18.3899 18.8813 18.954 19.4594 19.3405 20.2973C20.3534 22.4978 20.6274 27.4702 16.9281 26.954Z" fill="#6A926F"/>
</g>
<defs>
<filter id="filter0_d_1739_13026" x="0" y="0" width="34" height="34" filterUnits="userSpaceOnUse" color-interpolation-filters="sRGB">
<feFlood flood-opacity="0" result="BackgroundImageFix"/>
<feColorMatrix in="SourceAlpha" type="matrix" values="0 0 0 0 0 0 0 0 0 0 0 0 0 0 0 0 0 0 127 0" result="hardAlpha"/>
<feOffset dy="1"/>
<feGaussianBlur stdDeviation="0.5"/>
<feComposite in2="hardAlpha" operator="out"/>
<feColorMatrix type="matrix" values="0 0 0 0 0 0 0 0 0 0 0 0 0 0 0 0 0 0 0.25 0"/>
<feBlend mode="normal" in2="BackgroundImageFix" result="effect1_dropShadow_1739_13026"/>
<feBlend mode="normal" in="SourceGraphic" in2="effect1_dropShadow_1739_13026" result="shape"/>
</filter>
</defs>
</svg>
